<mxfile host="Electron" modified="2024-01-30T09:00:16.120Z" agent="Mozilla/5.0 (Macintosh; Intel Mac OS X 10_15_7) AppleWebKit/537.36 (KHTML, like Gecko) draw.io/22.0.2 Chrome/114.0.5735.289 Electron/25.8.4 Safari/537.36" etag="cDXL7i4y6_tIeKfoeMFs" version="22.0.2" type="device">
  <diagram name="Page-1" id="tEkB1dJT-rgU4U3SlrrT">
    <mxGraphModel dx="1306" dy="807" grid="1" gridSize="10" guides="1" tooltips="1" connect="1" arrows="1" fold="1" page="1" pageScale="1" pageWidth="850" pageHeight="1100" math="0" shadow="0">
      <root>
        <mxCell id="0" />
        <mxCell id="1" parent="0" />
        <mxCell id="0US3d_AlKLFDkHXQ0Roa-1" value="AWS S3 Bucket" style="html=1;verticalLabelPosition=bottom;align=center;labelBackgroundColor=#ffffff;verticalAlign=top;strokeWidth=2;strokeColor=#0080F0;shadow=0;dashed=0;shape=mxgraph.ios7.icons.cloud;" vertex="1" parent="1">
          <mxGeometry x="396" y="231" width="130" height="90" as="geometry" />
        </mxCell>
        <mxCell id="0US3d_AlKLFDkHXQ0Roa-2" value="" style="outlineConnect=0;dashed=0;verticalLabelPosition=bottom;verticalAlign=top;align=center;html=1;shape=mxgraph.aws3.bucket_with_objects;fillColor=#E05243;gradientColor=none;" vertex="1" parent="1">
          <mxGeometry x="441" y="271" width="40" height="40" as="geometry" />
        </mxCell>
        <mxCell id="0US3d_AlKLFDkHXQ0Roa-3" value="" style="rounded=0;whiteSpace=wrap;html=1;" vertex="1" parent="1">
          <mxGeometry x="50" y="225" width="270" height="115" as="geometry" />
        </mxCell>
        <mxCell id="0US3d_AlKLFDkHXQ0Roa-4" value="Kubernetes Cluster (Source)" style="text;html=1;strokeColor=none;fillColor=none;align=center;verticalAlign=middle;whiteSpace=wrap;rounded=0;" vertex="1" parent="1">
          <mxGeometry x="40" y="225" width="200" height="30" as="geometry" />
        </mxCell>
        <mxCell id="0US3d_AlKLFDkHXQ0Roa-5" value="Backup Controller" style="shape=image;verticalLabelPosition=bottom;labelBackgroundColor=default;verticalAlign=top;aspect=fixed;imageAspect=0;image=https://pbs.twimg.com/profile_images/1092805171938234371/CeyfzQLG_400x400.jpg;" vertex="1" parent="1">
          <mxGeometry x="230" y="262.5" width="40" height="40" as="geometry" />
        </mxCell>
        <mxCell id="0US3d_AlKLFDkHXQ0Roa-6" value="" style="rounded=0;whiteSpace=wrap;html=1;" vertex="1" parent="1">
          <mxGeometry x="600" y="225" width="270" height="115" as="geometry" />
        </mxCell>
        <mxCell id="0US3d_AlKLFDkHXQ0Roa-7" value="Kubernetes Cluster (Destination)" style="text;html=1;strokeColor=none;fillColor=none;align=center;verticalAlign=middle;whiteSpace=wrap;rounded=0;" vertex="1" parent="1">
          <mxGeometry x="590" y="225" width="210" height="30" as="geometry" />
        </mxCell>
        <mxCell id="0US3d_AlKLFDkHXQ0Roa-8" value="Restore Controller" style="shape=image;verticalLabelPosition=bottom;labelBackgroundColor=default;verticalAlign=top;aspect=fixed;imageAspect=0;image=https://pbs.twimg.com/profile_images/1092805171938234371/CeyfzQLG_400x400.jpg;" vertex="1" parent="1">
          <mxGeometry x="645" y="262.5" width="40" height="40" as="geometry" />
        </mxCell>
        <mxCell id="0US3d_AlKLFDkHXQ0Roa-9" value="K8S API" style="shape=image;verticalLabelPosition=bottom;labelBackgroundColor=default;verticalAlign=top;aspect=fixed;imageAspect=0;image=https://upload.wikimedia.org/wikipedia/commons/thumb/3/39/Kubernetes_logo_without_workmark.svg/2109px-Kubernetes_logo_without_workmark.svg.png;" vertex="1" parent="1">
          <mxGeometry x="70" y="262.07" width="42.1" height="40.87" as="geometry" />
        </mxCell>
        <mxCell id="0US3d_AlKLFDkHXQ0Roa-10" value="K8S API" style="shape=image;verticalLabelPosition=bottom;labelBackgroundColor=default;verticalAlign=top;aspect=fixed;imageAspect=0;image=https://upload.wikimedia.org/wikipedia/commons/thumb/3/39/Kubernetes_logo_without_workmark.svg/2109px-Kubernetes_logo_without_workmark.svg.png;" vertex="1" parent="1">
          <mxGeometry x="800" y="262" width="42.1" height="40.87" as="geometry" />
        </mxCell>
        <mxCell id="0US3d_AlKLFDkHXQ0Roa-12" value="" style="endArrow=classic;html=1;rounded=0;exitX=0;exitY=0.5;exitDx=0;exitDy=0;entryX=1;entryY=0.5;entryDx=0;entryDy=0;" edge="1" parent="1" source="0US3d_AlKLFDkHXQ0Roa-5" target="0US3d_AlKLFDkHXQ0Roa-9">
          <mxGeometry width="50" height="50" relative="1" as="geometry">
            <mxPoint x="240" y="450" as="sourcePoint" />
            <mxPoint x="290" y="400" as="targetPoint" />
          </mxGeometry>
        </mxCell>
        <mxCell id="0US3d_AlKLFDkHXQ0Roa-13" value="list resource" style="edgeLabel;html=1;align=center;verticalAlign=middle;resizable=0;points=[];" vertex="1" connectable="0" parent="0US3d_AlKLFDkHXQ0Roa-12">
          <mxGeometry x="0.1535" y="-2" relative="1" as="geometry">
            <mxPoint x="8" y="2" as="offset" />
          </mxGeometry>
        </mxCell>
        <mxCell id="0US3d_AlKLFDkHXQ0Roa-16" value="" style="endArrow=classic;html=1;rounded=0;exitX=1;exitY=0.5;exitDx=0;exitDy=0;entryX=0;entryY=0.5;entryDx=0;entryDy=0;" edge="1" parent="1" source="0US3d_AlKLFDkHXQ0Roa-8" target="0US3d_AlKLFDkHXQ0Roa-10">
          <mxGeometry width="50" height="50" relative="1" as="geometry">
            <mxPoint x="710" y="440" as="sourcePoint" />
            <mxPoint x="760" y="390" as="targetPoint" />
          </mxGeometry>
        </mxCell>
        <mxCell id="0US3d_AlKLFDkHXQ0Roa-17" value="apply resource" style="edgeLabel;html=1;align=center;verticalAlign=middle;resizable=0;points=[];" vertex="1" connectable="0" parent="0US3d_AlKLFDkHXQ0Roa-16">
          <mxGeometry x="-0.3044" y="-2" relative="1" as="geometry">
            <mxPoint x="15" y="-2" as="offset" />
          </mxGeometry>
        </mxCell>
        <mxCell id="0US3d_AlKLFDkHXQ0Roa-19" value="" style="endArrow=classic;html=1;rounded=0;exitX=1;exitY=0.5;exitDx=0;exitDy=0;entryX=0.023;entryY=0.567;entryDx=0;entryDy=0;entryPerimeter=0;" edge="1" parent="1" source="0US3d_AlKLFDkHXQ0Roa-5" target="0US3d_AlKLFDkHXQ0Roa-1">
          <mxGeometry width="50" height="50" relative="1" as="geometry">
            <mxPoint x="250" y="470" as="sourcePoint" />
            <mxPoint x="300" y="420" as="targetPoint" />
          </mxGeometry>
        </mxCell>
        <mxCell id="0US3d_AlKLFDkHXQ0Roa-21" value="upload" style="edgeLabel;html=1;align=center;verticalAlign=middle;resizable=0;points=[];" vertex="1" connectable="0" parent="0US3d_AlKLFDkHXQ0Roa-19">
          <mxGeometry x="0.0233" y="-1" relative="1" as="geometry">
            <mxPoint x="14" y="-1" as="offset" />
          </mxGeometry>
        </mxCell>
        <mxCell id="0US3d_AlKLFDkHXQ0Roa-22" value="" style="endArrow=classic;html=1;rounded=0;exitX=0;exitY=0.5;exitDx=0;exitDy=0;entryX=0.946;entryY=0.556;entryDx=0;entryDy=0;entryPerimeter=0;" edge="1" parent="1" source="0US3d_AlKLFDkHXQ0Roa-8" target="0US3d_AlKLFDkHXQ0Roa-1">
          <mxGeometry width="50" height="50" relative="1" as="geometry">
            <mxPoint x="430" y="500" as="sourcePoint" />
            <mxPoint x="480" y="450" as="targetPoint" />
          </mxGeometry>
        </mxCell>
        <mxCell id="0US3d_AlKLFDkHXQ0Roa-23" value="download" style="edgeLabel;html=1;align=center;verticalAlign=middle;resizable=0;points=[];" vertex="1" connectable="0" parent="0US3d_AlKLFDkHXQ0Roa-22">
          <mxGeometry x="0.0793" y="-1" relative="1" as="geometry">
            <mxPoint x="-17" y="1" as="offset" />
          </mxGeometry>
        </mxCell>
      </root>
    </mxGraphModel>
  </diagram>
</mxfile>
